HIERARCHY
ROOT joint_Root
{
	OFFSET 0.0 0.0 0.0
	CHANNELS 6 Xposition Yposition Zposition Zrotation Xrotation Yrotation 
	JOINT Hips
	{
		OFFSET 4.5925 91.4895 -427.239
		CHANNELS 6 Xposition Yposition Zposition Zrotation Xrotation Yrotation 
		JOINT Spine
		{
			OFFSET 15.7357 0.0 0.0
			CHANNELS 6 Xposition Yposition Zposition Zrotation Xrotation Yrotation 
			JOINT Chest
			{
				OFFSET 8.98455 -0.406207 0.0
				CHANNELS 6 Xposition Yposition Zposition Zrotation Xrotation Yrotation 
				JOINT Neck
				{
					OFFSET 16.3773 0.0 0.0
					CHANNELS 6 Xposition Yposition Zposition Zrotation Xrotation Yrotation 
					JOINT Head
					{
						OFFSET 6.45672 0.0 0.0
						CHANNELS 6 Xposition Yposition Zposition Zrotation Xrotation Yrotation 
						End Site
						{
							OFFSET 0.0 0.0 0.0
						}
					}
				}
				JOINT Shoulder_L
				{
					OFFSET 12.9942 -0.242716 4.98039
					CHANNELS 6 Xposition Yposition Zposition Zrotation Xrotation Yrotation 
					JOINT UpperArm_L
					{
						OFFSET 5.34809 0.0 0.0
						CHANNELS 6 Xposition Yposition Zposition Zrotation Xrotation Yrotation 
						JOINT LowerArm_L
						{
							OFFSET 24.3286 1.87007e-05 0.0
							CHANNELS 6 Xposition Yposition Zposition Zrotation Xrotation Yrotation 
							JOINT Hand_L
							{
								OFFSET 22.2916 0.0 0.0
								CHANNELS 6 Xposition Yposition Zposition Zrotation Xrotation Yrotation 
								End Site
								{
									OFFSET 0.0 0.0 0.0
								}
							}
						}
					}
				}
				JOINT Shoulder_R
				{
					OFFSET 12.9945 -0.242716 -4.98039
					CHANNELS 6 Xposition Yposition Zposition Zrotation Xrotation Yrotation 
					JOINT UpperArm_R
					{
						OFFSET -5.34813 0.0 0.0
						CHANNELS 6 Xposition Yposition Zposition Zrotation Xrotation Yrotation 
						JOINT LowerArm_R
						{
							OFFSET -24.3289 0.000322201 0.0
							CHANNELS 6 Xposition Yposition Zposition Zrotation Xrotation Yrotation 
							JOINT Hand_R
							{
								OFFSET -22.2915 -0.000108084 0.0
								CHANNELS 6 Xposition Yposition Zposition Zrotation Xrotation Yrotation 
								End Site
								{
									OFFSET 0.0 0.0 0.0
								}
							}
						}
					}
				}
			}
		}
		JOINT UpperLeg_L
		{
			OFFSET -2.19248 -6.46944 0.0
			CHANNELS 6 Xposition Yposition Zposition Zrotation Xrotation Yrotation 
			JOINT LowerLeg_L
			{
				OFFSET 39.0811 0.0 -1.23785e-05
				CHANNELS 6 Xposition Yposition Zposition Zrotation Xrotation Yrotation 
				JOINT Foot_L
				{
					OFFSET 40.9854 0.0 -1.26872e-05
					CHANNELS 6 Xposition Yposition Zposition Zrotation Xrotation Yrotation 
					JOINT Toes_L
					{
						OFFSET 11.7543 0.0 0.0
						CHANNELS 6 Xposition Yposition Zposition Zrotation Xrotation Yrotation 
						End Site
						{
							OFFSET 0.0 0.0 0.0
						}
					}
				}
			}
		}
		JOINT UpperLeg_R
		{
			OFFSET -2.19251 6.46944 0.0
			CHANNELS 6 Xposition Yposition Zposition Zrotation Xrotation Yrotation 
			JOINT LowerLeg_R
			{
				OFFSET -39.0811 -0.00228153 -0.0401928
				CHANNELS 6 Xposition Yposition Zposition Zrotation Xrotation Yrotation 
				JOINT Foot_R
				{
					OFFSET -40.9854 0.0 0.0
					CHANNELS 6 Xposition Yposition Zposition Zrotation Xrotation Yrotation 
					JOINT Toes_R
					{
						OFFSET -11.7543 0.0 0.0
						CHANNELS 6 Xposition Yposition Zposition Zrotation Xrotation Yrotation 
						End Site
						{
							OFFSET 0.0 0.0 0.0
						}
					}
				}
			}
		}
	}
}
MOTION
Frames:	4
Frame Time:	0.0333333
0.000000 0.000000 0.000000 0.000000 0.000000 -0.000000 -2.480340 90.650700 -6.884040 88.348600 -0.718616 12.687100 15.735700 0.000005 -0.000001 87.416400 73.471900 -88.669100 8.984550 -0.406207 -0.000000 25.246300 -1.627870 -2.157760 16.377300 -0.000001 -0.000001 19.447100 -5.833400 -0.240822 6.456720 -0.000001 -0.000000 -13.441600 -4.590720 -5.691890 12.994200 -0.242716 4.980390 -91.328400 6.824830 -78.958500 5.348090 -0.000007 -0.000001 -53.229100 30.998000 -33.333300 24.328600 0.000019 0.000005 10.318400 22.658600 -25.295200 22.291600 -0.000001 0.000005 11.280000 5.245730 1.545410 12.994500 -0.242716 -4.980390 89.264200 3.671090 -78.657700 -5.348130 -0.000001 -0.000004 -72.074400 -6.953270 -63.421500 -24.328900 0.000322 -0.000009 16.796700 -6.902150 -111.708000 -22.291500 -0.000108 -0.000004 33.488300 5.344490 -1.212580 -2.192480 -6.469440 -0.000000 -171.868000 -13.423800 -4.195100 39.081100 -0.000007 -0.000012 -0.148870 0.226862 33.273700 40.985400 -0.000006 -0.000013 -0.715206 5.975150 -65.786700 11.754300 -0.000000 0.000003 -0.000170 -0.001613 -16.638700 -2.192510 6.469440 -0.000001 175.619000 25.938800 178.499000 -39.081100 -0.002282 -0.040193 -0.148983 0.244288 31.938100 -40.985400 0.000008 0.000006 5.673150 14.907200 -67.605900 -11.754300 -0.000006 -0.000006 -0.003040 -0.041051 -18.242600
0.000000 0.000000 0.000000 0.000000 0.000000 -0.000000 -2.446580 90.655600 -6.813470 88.342800 -0.741901 12.669900 15.735700 0.000005 -0.000001 87.381000 73.480300 -88.625400 8.984550 -0.406207 -0.000000 25.228600 -1.645450 -2.137350 16.377300 -0.000001 -0.000001 19.291100 -5.818700 -0.264615 6.456720 -0.000001 -0.000000 -13.382400 -4.559820 -5.654050 12.994200 -0.242716 4.980390 -91.337000 6.840450 -78.913300 5.348090 -0.000007 -0.000001 -53.107900 31.067600 -33.459100 24.328600 0.000019 0.000005 10.317800 22.675800 -25.277800 22.291600 -0.000001 0.000005 11.302500 5.243330 1.608380 12.994500 -0.242716 -4.980390 89.266500 3.669630 -78.688200 -5.348130 -0.000001 -0.000004 -72.072900 -6.947470 -63.437200 -24.328900 0.000322 -0.000009 16.951500 -6.930940 -111.599000 -22.291500 -0.000108 -0.000004 33.464700 5.342820 -1.162950 -2.192480 -6.469440 -0.000000 -171.883000 -13.426900 -4.151450 39.081100 -0.000007 -0.000012 -0.147151 0.224307 33.266200 40.985400 -0.000006 -0.000013 -0.703119 5.939880 -65.842400 11.754300 -0.000000 0.000003 -0.000181 -0.001699 -16.641800 -2.192510 6.469440 -0.000001 175.581000 25.943300 178.552000 -39.081100 -0.002282 -0.040193 -0.149556 0.245496 31.907800 -40.985400 0.000008 0.000006 5.643120 14.940400 -67.627800 -11.754300 -0.000006 -0.000006 -0.002847 -0.038856 -18.153300
0.000000 0.000000 0.000000 0.000000 0.000000 -0.000000 -2.416230 90.665600 -6.742990 88.364300 -0.752612 12.610300 15.735700 0.000005 -0.000001 87.355100 73.499000 -88.590300 8.984550 -0.406207 -0.000000 25.190700 -1.656560 -2.116850 16.377300 -0.000001 -0.000001 19.116000 -5.777020 -0.263709 6.456720 -0.000001 -0.000000 -13.321100 -4.546100 -5.662290 12.994200 -0.242716 4.980390 -91.349100 6.893770 -78.899100 5.348090 -0.000007 -0.000001 -52.980800 31.102700 -33.561400 24.328600 0.000019 0.000005 10.322800 22.643600 -25.318600 22.291600 -0.000001 0.000005 11.387600 5.241670 1.651960 12.994500 -0.242716 -4.980390 89.264900 3.672700 -78.673700 -5.348130 -0.000001 -0.000004 -72.049000 -6.964390 -63.478100 -24.328900 0.000322 -0.000009 17.062400 -6.944170 -111.500000 -22.291500 -0.000108 -0.000004 33.480600 5.338580 -1.037460 -2.192480 -6.469440 -0.000000 -171.919000 -13.454800 -4.128950 39.081100 -0.000007 -0.000012 -0.148776 0.227237 33.213700 40.985400 -0.000006 -0.000013 -0.691035 5.952110 -65.872700 11.754300 -0.000000 0.000003 -0.000168 -0.001602 -16.638300 -2.192510 6.469440 -0.000001 175.554000 25.904200 178.557000 -39.081100 -0.002282 -0.040193 -0.151526 0.249049 31.867800 -40.985400 0.000008 0.000006 5.606940 14.937700 -67.644500 -11.754300 -0.000006 -0.000006 -0.002892 -0.039369 -18.174100
0.000000 0.000000 0.000000 0.000000 0.000000 -0.000000 -2.382740 90.672000 -6.679060 88.389400 -0.783458 12.594800 15.735700 0.000005 -0.000001 87.313600 73.514900 -88.552000 8.984550 -0.406207 -0.000000 25.157700 -1.678370 -2.118640 16.377300 -0.000001 -0.000001 18.969600 -5.757360 -0.270206 6.456720 -0.000001 -0.000000 -13.285100 -4.512980 -5.650100 12.994200 -0.242716 4.980390 -91.344100 6.872330 -78.906100 5.348090 -0.000007 -0.000001 -53.010000 31.042900 -33.557900 24.328600 0.000019 0.000005 10.378600 22.731900 -25.359200 22.291600 -0.000001 0.000005 11.384600 5.241170 1.664750 12.994500 -0.242716 -4.980390 89.268400 3.659570 -78.687300 -5.348130 -0.000001 -0.000004 -72.101200 -6.999250 -63.477600 -24.328900 0.000322 -0.000009 16.812000 -6.811090 -111.431000 -22.291500 -0.000108 -0.000004 33.428100 5.348010 -1.317710 -2.192480 -6.469440 -0.000000 -171.948000 -13.485400 -4.070280 39.081100 -0.000007 -0.000012 -0.153587 0.234921 33.176100 40.985400 -0.000006 -0.000013 -0.686450 5.920810 -65.906700 11.754300 -0.000000 0.000003 -0.000178 -0.001680 -16.641100 -2.192510 6.469440 -0.000001 175.487000 25.880500 178.601000 -39.081100 -0.002282 -0.040193 -0.151865 0.249791 31.847500 -40.985400 0.000008 0.000006 5.572290 14.966800 -67.667700 -11.754300 -0.000006 -0.000006 -0.002767 -0.037937 -18.115900
